<?xml version="1.0" encoding="UTF-8"?>
<svg id="Calque_2" data-name="Calque 2" xmlns="http://www.w3.org/2000/svg" viewBox="0 0 125.13 124.76">
  <defs>
    <style>
      .cls-1 {
        opacity: .7;
      }

      .cls-2 {
        fill: #fff;
      }

      .cls-3 {
        fill: #ffc880;
      }

      .cls-4 {
        fill: #ef9325;
      }

      .cls-5 {
        fill: #fc6363;
      }

      .cls-6 {
        fill: #dd4d4a;
      }

      .cls-7 {
        fill: #ff88b6;
        opacity: .2;
      }

      .cls-8 {
        fill: #fbb040;
      }

      .cls-9 {
        opacity: .1;
      }

      .cls-10 {
        fill: #8dc63f;
      }

      .cls-11 {
        fill: #433;
      }

      .cls-12 {
        fill: #231f20;
      }

      .cls-13 {
        fill: #f4994e;
      }
    </style>
  </defs>
  <g id="OBJECTS">
    <g>
      <circle class="cls-7" cx="62.75" cy="62.38" r="62.38" transform="translate(-25.73 62.64) rotate(-45)"/>
      <g>
        <g>
          <rect class="cls-4" x="17.32" y="18.36" width="83.82" height="83.82" transform="translate(-25.19 56.53) rotate(-42.96)"/>
          <rect class="cls-8" x="16.84" y="14.67" width="95.79" height="95.79" transform="translate(-13.04 107.9) rotate(-74.26)"/>
          <path class="cls-6" d="m123.63,56.38c0,18.61-15.08,33.69-33.69,33.69s-33.69-15.08-33.69-33.69,15.08-33.69,33.69-33.69,33.69,15.08,33.69,33.69Z"/>
          <circle class="cls-6" cx="42.28" cy="62.33" r="33.69"/>
          <path class="cls-10" d="m89.15,3.14c-4.87-1.08-9,2.61-13.1,4.16-3.75,1.5-8.03,1.85-12.05,1.55-8.8-.78-14.37-1.76-23.23,1.75-6.72,2.66-15.84,4.4-20.83,9.48-4.82,4.9-3.08,14.26,5.95,13.6,7.51-.55,11.33-3.89,18.38-.39,3.55,1.9,6.08,4.26,9.63,6.16,7.85,3.98,19.52,4.63,29.1,3.46,11.7-1.5,14.91-4.13,16.22-14.42.75-6.84.34-23.58-10.06-25.34Z"/>
          <path class="cls-10" d="m54.54,94.31c.21-4.37-4.12-6.9-6.35-9.96-2.11-2.77-3.21-6.28-3.62-9.74-.77-7.6-.8-12.54-5.77-19.09-3.77-4.98-7.06-12.2-12.88-15.11-5.62-2.8-14.45,1.05-12.23,8.47,1.85,6.18,5.77,8.54,3.59,15.36-1.23,3.47-3.09,6.2-4.32,9.67-2.52,7.62-1.11,17.6,1.71,25.36,3.51,9.46,6.64,11.49,16.9,9.96,6.8-1.11,23.07-5.73,22.97-14.92Z"/>
          <path class="cls-10" d="m117.21,94.43c1.74-4.01-1.41-7.91-2.41-11.56-1-3.34-.78-7.01.06-10.39,1.97-7.38,3.69-12.01,1.36-19.9-1.76-5.99-2.28-13.91-6.7-18.69-4.26-4.61-13.88-4.14-14.43,3.6-.46,6.43,2.38,10.03-2.08,15.64-2.38,2.81-5.08,4.7-7.46,7.51-5.05,6.23-7.26,16.07-7.37,24.32-.07,10.09,2.14,13.09,12.28,15.3,6.76,1.37,23.6,2.81,26.76-5.83Z"/>
          <path class="cls-13" d="m120.92,33.84c0-12.83-25.04-23.22-55.92-23.22S9.08,21.01,9.08,33.84c0,4.07,2.53,7.9,6.97,11.23l4.72,60.58c0,6.58,5.34,11.92,11.92,11.92h64.62c6.58,0,11.92-5.33,11.92-11.92l4.72-60.58c4.43-3.33,6.97-7.15,6.97-11.23Z"/>
          <path class="cls-3" d="m111.68,35.96c0-11.11-21.68-20.11-48.43-20.11S14.81,24.85,14.81,35.96c0,3.53,2.19,6.84,6.04,9.72l4.09,52.47c0,5.7,4.62,10.32,10.32,10.32h55.98c5.7,0,10.32-4.62,10.32-10.32l4.09-52.47c3.84-2.88,6.03-6.2,6.03-9.72Z"/>
          <g class="cls-9">
            <path class="cls-12" d="m97.2,14.86c-5.6,19.68-28.03,86.03-76.56,89.13l.13,1.65c0,6.58,5.34,11.92,11.92,11.92h64.62c6.58,0,11.92-5.33,11.92-11.92l4.72-60.58c4.43-3.33,6.97-7.15,6.97-11.23,0-7.84-9.38-14.77-23.71-18.98Z"/>
          </g>
        </g>
        <g>
          <g>
            <g>
              <g>
                <path class="cls-11" d="m52.04,48.92c0,4.18-3.39,7.56-7.56,7.56s-7.56-3.39-7.56-7.56,3.39-7.56,7.56-7.56,7.56,3.39,7.56,7.56Z"/>
                <path class="cls-2" d="m42.96,47.61c-1.77,1.77-2.81,3.4-3.92,2.3-1.1-1.1-.56-3.43,1.21-5.21,1.77-1.77,4.1-2.32,5.21-1.21,1.1,1.1-.73,2.35-2.5,4.12Z"/>
              </g>
              <g>
                <path class="cls-11" d="m91.77,48.92c0,4.18-3.39,7.56-7.56,7.56s-7.56-3.39-7.56-7.56,3.39-7.56,7.56-7.56,7.56,3.39,7.56,7.56Z"/>
                <path class="cls-2" d="m82.69,47.61c-1.77,1.77-2.81,3.4-3.91,2.3-1.1-1.1-.56-3.43,1.21-5.21,1.77-1.77,4.11-2.32,5.21-1.21,1.1,1.1-.73,2.35-2.5,4.12Z"/>
              </g>
              <g>
                <path class="cls-11" d="m82.54,72.34c0,5.18-8.4,11.12-18.76,11.12s-18.76-5.94-18.76-11.12,8.4-2.35,18.76-2.35,18.76-2.84,18.76,2.35Z"/>
                <path class="cls-6" d="m49.1,78.85c3.44,2.65,8.73,4.61,14.68,4.61s10.99-1.86,14.43-4.42c-3.21-2.17-8.6-3.59-14.71-3.59s-11.17,1.34-14.4,3.4Z"/>
              </g>
            </g>
            <g>
              <g class="cls-1">
                <path class="cls-5" d="m105.53,69.23c0,2.97-4.29,5.37-9.59,5.37s-9.59-2.41-9.59-5.37,4.29-5.37,9.59-5.37,9.59,2.4,9.59,5.37Z"/>
              </g>
              <g class="cls-1">
                <path class="cls-5" d="m41.11,69.23c0,2.97-4.29,5.37-9.59,5.37s-9.59-2.41-9.59-5.37,4.29-5.37,9.59-5.37,9.59,2.4,9.59,5.37Z"/>
              </g>
            </g>
          </g>
          <path class="cls-2" d="m81.39,70.05s0-.04,0-.06c-2.63-1.71-9.51,0-17.61,0s-15.37-1.82-17.82.15c.11,4.6,7.99,2.59,17.71,2.59s17.72,2.05,17.72-2.67Z"/>
        </g>
        <g>
          <path class="cls-2" d="m40.04,28.75c-6.4.83-7.07,1.51-7.9,7.9-.83-6.4-1.51-7.07-7.9-7.9,6.4-.83,7.07-1.5,7.9-7.9.83,6.4,1.51,7.07,7.9,7.9Z"/>
          <path class="cls-2" d="m53.6,25.45c-3.56.46-3.94.84-4.4,4.4-.46-3.56-.84-3.94-4.4-4.4,3.56-.46,3.94-.84,4.4-4.4.46,3.56.84,3.94,4.4,4.4Z"/>
          <path class="cls-2" d="m84.41,20.55c-3.56.46-3.94.84-4.4,4.4-.46-3.56-.84-3.94-4.4-4.4,3.56-.46,3.94-.84,4.4-4.4.46,3.56.84,3.94,4.4,4.4Z"/>
          <path class="cls-2" d="m29.67,39.08c-3.56.46-3.94.84-4.4,4.4-.46-3.56-.84-3.94-4.4-4.4,3.56-.46,3.94-.84,4.4-4.4.46,3.56.84,3.94,4.4,4.4Z"/>
        </g>
      </g>
    </g>
  </g>
</svg>